<?xml version="1.0" standalone="no"?>
<!DOCTYPE svg PUBLIC "-//W3C//DTD SVG 20010904//EN"
 "http://www.w3.org/TR/2001/REC-SVG-20010904/DTD/svg10.dtd">
<svg version="1.0" xmlns="http://www.w3.org/2000/svg"
 width="362.000000pt" height="146.000000pt" viewBox="0 0 362.000000 146.000000"
 preserveAspectRatio="xMidYMid meet">
<metadata>
Created by potrace 1.16, written by Peter Selinger 2001-2019
</metadata>
<g transform="translate(0.000000,146.000000) scale(0.100000,-0.100000)"
fill="#000000" stroke="none">
<path d="M2183 1383 c-63 -59 -121 -106 -213 -174 -118 -87 -194 -161 -252
-247 -54 -80 -74 -95 -94 -68 -18 26 -4 56 76 161 115 151 137 229 81 286 -36
35 -93 39 -156 10 -78 -35 -129 -131 -70 -131 16 0 25 -6 25 -16 0 -14 -3 -14
-15 -4 -19 15 -17 17 -44 -44 -19 -45 -20 -66 -2 -66 4 0 22 20 40 44 18 24
44 49 57 54 13 6 35 34 49 62 27 53 55 66 73 33 20 -35 -6 -81 -122 -219 -119
-139 -145 -208 -111 -290 l14 -34 223 1 c123 1 215 4 206 6 -28 7 -21 21 6 16
28 -6 87 17 80 29 -3 4 7 9 23 9 l28 1 -30 8 c-29 7 -29 8 9 9 29 1 37 4 32
16 -3 10 1 15 12 16 14 0 14 2 -3 9 -19 8 -19 9 2 9 12 1 24 -5 27 -11 3 -7 4
-4 3 7 -1 11 -9 23 -17 27 -12 5 -11 7 4 7 14 1 17 7 14 26 -4 20 0 25 23 30
16 4 29 10 29 15 0 5 -15 4 -32 -1 -50 -14 -48 -10 7 17 43 20 37 23 -15 6 -9
-3 -7 2 5 12 20 17 19 17 -10 12 -29 -5 -29 -5 6 12 20 9 34 23 32 30 -3 6 0
12 7 12 6 0 8 -4 5 -10 -4 -6 1 -7 11 -3 10 4 13 8 7 10 -7 3 -9 12 -5 21 6
16 4 16 -21 -1 -36 -23 -48 -21 -17 3 17 13 20 20 10 20 -8 0 0 10 18 21 49
32 30 35 -24 5 -68 -38 -68 -32 1 14 62 41 71 56 13 20 -49 -30 -59 -24 -13 6
51 34 66 47 41 38 -17 -6 -17 -5 -6 17 l13 23 -27 -17 c-16 -11 -26 -13 -26
-6 0 7 -11 4 -27 -6 l-28 -18 19 21 c12 14 14 22 7 22 -7 0 -9 5 -5 11 4 8 9
7 15 -2 6 -11 12 -10 27 4 10 9 23 17 28 17 5 -1 -2 -10 -15 -20 -31 -26 -17
-26 16 0 14 11 20 20 14 20 -9 0 -9 5 -1 20 9 17 8 19 -7 13 -16 -6 -17 -5 -3
12 19 23 22 69 3 53 -15 -12 -18 -32 -3 -23 26 16 6 -14 -22 -35 l-33 -23 24
26 c24 27 17 38 -9 15 -7 -7 4 8 24 35 21 26 37 47 34 47 -2 0 -22 -17 -45
-37z"/>
<path d="M131 488 c-51 -25 -81 -69 -81 -118 0 -74 36 -106 158 -138 87 -23
112 -43 112 -88 0 -52 -36 -86 -96 -91 -63 -5 -109 22 -132 77 -10 22 -20 40
-24 40 -5 0 -8 -29 -8 -64 l0 -64 40 -16 c55 -22 145 -20 197 4 57 26 83 69
83 141 0 48 -4 60 -27 83 -15 15 -50 33 -82 41 -31 9 -73 20 -94 26 -109 29
-67 149 54 149 33 0 47 -6 75 -34 19 -19 34 -41 34 -50 0 -9 5 -16 10 -16 6 0
10 27 10 60 l0 59 -37 10 c-63 18 -143 13 -192 -11z"/>
<path d="M1895 491 c-54 -24 -119 -100 -135 -156 -26 -92 2 -217 62 -272 85
-80 242 -68 318 25 83 101 77 286 -12 369 -57 53 -159 68 -233 34z m129 -54
c26 -14 49 -41 70 -77 26 -47 30 -64 30 -125 0 -111 -47 -175 -128 -175 -51 0
-97 31 -137 92 -111 167 9 375 165 285z"/>
<path d="M2684 492 c-60 -29 -84 -64 -84 -127 0 -82 24 -100 198 -145 78 -20
93 -92 30 -145 -62 -52 -160 -21 -194 62 -8 18 -19 33 -24 33 -11 0 -12 -71
-1 -110 10 -35 68 -53 153 -47 117 8 175 67 166 169 -7 71 -32 92 -146 122
-52 14 -100 30 -108 37 -24 20 -17 68 15 100 53 53 158 32 187 -37 20 -48 34
-42 34 14 0 74 -13 84 -106 89 -63 3 -87 0 -120 -15z"/>
<path d="M390 494 c0 -4 8 -13 18 -20 10 -7 44 -98 88 -236 l70 -223 29 0 c29
0 30 1 62 119 18 65 34 120 36 122 2 2 19 -51 38 -119 34 -120 35 -122 65
-125 l30 -3 59 208 c63 225 78 263 100 263 8 0 15 5 15 10 0 6 -30 10 -70 10
-40 0 -70 -4 -70 -10 0 -5 9 -10 20 -10 11 0 23 -7 26 -14 7 -18 -88 -349 -96
-338 -8 9 -100 322 -100 340 0 6 9 12 20 12 11 0 20 5 20 10 0 6 -35 10 -85
10 -86 0 -104 -7 -62 -25 15 -7 29 -30 45 -79 l23 -70 -27 -98 c-15 -54 -30
-98 -33 -98 -3 0 -18 42 -34 93 -15 50 -38 127 -52 171 -24 76 -24 78 -5 83
44 12 16 23 -55 23 -41 0 -75 -3 -75 -6z"/>
<path d="M1060 490 c0 -5 5 -10 10 -10 19 0 10 -34 -58 -230 -54 -157 -71
-197 -89 -205 -40 -17 -25 -25 47 -25 40 0 70 4 70 10 0 6 -9 10 -19 10 -31 0
-32 13 -7 86 l23 69 75 3 76 3 21 -63 c25 -73 26 -98 6 -98 -8 0 -15 -4 -15
-10 0 -6 32 -10 75 -10 43 0 75 4 75 10 0 6 -6 10 -14 10 -14 0 -20 15 -126
313 l-53 147 -49 0 c-26 0 -48 -4 -48 -10z"/>
<path d="M1370 491 c0 -6 6 -11 14 -11 23 0 26 -24 26 -220 0 -196 -3 -220
-26 -220 -8 0 -14 -4 -14 -10 0 -6 32 -10 75 -10 43 0 75 4 75 10 0 6 -6 10
-14 10 -23 0 -26 24 -26 231 l0 199 23 0 c42 0 96 -21 112 -43 36 -52 7 -129
-53 -143 -79 -17 -80 -7 14 -142 l86 -122 49 0 c47 0 65 12 34 23 -17 7 -159
197 -152 204 3 3 20 12 38 21 48 25 74 66 74 118 0 36 -6 49 -33 76 l-32 33
-135 3 c-92 3 -135 0 -135 -7z"/>
<path d="M2170 491 c0 -5 8 -11 18 -13 13 -2 37 -61 97 -233 76 -219 81 -230
107 -233 27 -3 27 -2 101 225 59 186 77 230 95 238 38 17 24 25 -43 25 -37 0
-65 -4 -65 -10 0 -5 7 -10 15 -10 9 0 18 -6 21 -14 4 -12 -87 -312 -104 -340
-5 -9 -122 325 -122 346 0 5 9 8 20 8 11 0 20 5 20 10 0 6 -33 10 -80 10 -44
0 -80 -4 -80 -9z"/>
<path d="M2970 490 c0 -5 6 -10 14 -10 23 0 26 -24 26 -220 0 -196 -3 -220
-26 -220 -8 0 -14 -4 -14 -10 0 -6 32 -10 75 -10 43 0 75 4 75 10 0 6 -7 10
-15 10 -21 0 -26 32 -23 129 l3 84 99 -116 99 -117 54 0 c29 0 53 5 53 10 0 6
-6 10 -12 10 -21 0 -220 238 -212 252 23 38 162 180 182 185 46 11 19 23 -53
23 -43 0 -75 -4 -75 -10 0 -5 9 -10 20 -10 11 0 20 -4 20 -10 0 -5 -39 -53
-87 -106 l-88 -96 -3 83 c-3 97 2 129 23 129 8 0 15 5 15 10 0 6 -32 10 -75
10 -43 0 -75 -4 -75 -10z"/>
<path d="M3420 490 c0 -5 6 -10 14 -10 23 0 26 -24 26 -220 0 -196 -3 -220
-26 -220 -8 0 -14 -4 -14 -10 0 -6 32 -10 75 -10 43 0 75 4 75 10 0 6 -6 10
-14 10 -23 0 -26 24 -26 220 0 196 3 220 26 220 8 0 14 5 14 10 0 6 -32 10
-75 10 -43 0 -75 -4 -75 -10z"/>
</g>
</svg>
